M48
;GenerationSoftware,Autodesk,EAGLE,9.6.2*%
;CreationDate,2024-02-20T12:52:37Z*%
FMAT,2
ICI,OFF
METRIC,TZ,000.000
T4C0.550
T3C0.800
T2C0.813
T1C1.016
%
G90
M71
T1
X113030Y64135
X113030Y66675
X113030Y69215
X113030Y71755
X113030Y74295
X113030Y76835
X115570Y76835
X115570Y53975
X113030Y53975
X115570Y56515
X113030Y56515
X115570Y59055
X115570Y61595
X113030Y59055
X113030Y61595
X115570Y64135
X115570Y66675
X115570Y69215
X115570Y71755
X115570Y74295
T2
X16192Y61595
X3492Y61595
X3492Y53975
X13652Y61595
X6032Y61595
X8573Y61595
X6032Y53975
X8573Y53975
X11112Y53975
X13652Y53975
X16192Y53975
X18733Y53975
X18733Y48895
X16192Y48895
X3492Y48895
X3492Y41275
X13652Y48895
X11112Y48895
X6032Y48895
X8573Y48895
X6032Y41275
X8573Y41275
X11112Y41275
X13652Y41275
X16192Y41275
X18733Y41275
X21273Y74295
X18733Y74295
X6032Y74295
X3492Y74295
X16192Y74295
X13652Y74295
X8573Y74295
X11112Y74295
X3492Y66675
X6032Y66675
X8573Y66675
X11112Y66675
X13652Y66675
X16192Y66675
X18733Y66675
X21273Y66675
X44132Y53975
X41593Y53975
X28892Y53975
X26352Y53975
X39053Y53975
X36513Y53975
X31432Y53975
X33973Y53975
X26352Y46355
X28892Y46355
X31432Y46355
X33973Y46355
X36513Y46355
X39053Y46355
X41593Y46355
X44132Y46355
X25082Y73025
X30162Y73025
X100330Y43815
X28892Y31115
X100330Y46355
X102870Y43815
X102870Y46355
X105410Y43815
X105410Y46355
X107950Y43815
X107950Y46355
X110490Y43815
X110490Y46355
X113030Y43815
X113030Y46355
X115570Y43815
X115570Y46355
X118110Y43815
X118110Y46355
X22860Y49212
X22860Y54292
X22542Y33655
X22542Y38735
X22542Y31115
X22542Y26035
X107950Y70485
X107950Y75565
X102870Y53975
X102870Y59055
X84455Y11906
X97155Y11906
X95250Y43815
X95250Y46355
X97790Y43815
X97790Y46355
X120650Y43815
X118110Y43815
X115570Y43815
X113030Y43815
X110490Y43815
X107950Y43815
X105410Y43815
X102870Y43815
X100330Y43815
X97790Y43815
X95250Y43815
X22542Y40640
X22542Y45720
X25082Y43180
X22860Y56515
X22860Y61595
X121920Y33655
X121920Y38735
X121920Y18415
X121920Y23495
X22860Y15875
X22860Y20955
X47942Y61595
X47942Y66675
X48260Y46355
X48260Y51435
X50482Y33655
X50482Y38735
X50800Y15875
X50800Y20955
X91440Y53657
X91440Y48577
X91440Y26035
X91440Y31115
X103822Y71755
X103822Y76835
X100012Y76835
X97472Y76835
X84773Y76835
X82233Y76835
X94932Y76835
X92392Y76835
X87313Y76835
X89852Y76835
X79693Y76835
X77153Y76835
X74613Y76835
X72073Y76835
X69533Y76835
X66993Y76835
X64452Y76835
X61912Y76835
X59372Y76835
X56832Y76835
X54292Y76835
X51752Y76835
X51752Y61595
X54292Y61595
X56832Y61595
X59372Y61595
X61912Y61595
X64452Y61595
X66993Y61595
X69533Y61595
X72073Y61595
X74613Y61595
X77153Y61595
X79693Y61595
X82233Y61595
X84773Y61595
X87313Y61595
X89852Y61595
X92392Y61595
X94932Y61595
X97472Y61595
X100012Y61595
X44132Y69215
X41593Y69215
X28892Y69215
X26352Y69215
X39053Y69215
X36513Y69215
X31432Y69215
X33973Y69215
X26352Y61595
X28892Y61595
X31432Y61595
X33973Y61595
X36513Y61595
X39053Y61595
X41593Y61595
X44132Y61595
X118110Y38735
X115570Y38735
X102870Y38735
X100330Y38735
X113030Y38735
X110490Y38735
X105410Y38735
X107950Y38735
X97790Y38735
X95250Y38735
X95250Y31115
X97790Y31115
X100330Y31115
X102870Y31115
X105410Y31115
X107950Y31115
X110490Y31115
X113030Y31115
X115570Y31115
X118110Y31115
X118110Y26035
X115570Y26035
X102870Y26035
X100330Y26035
X113030Y26035
X110490Y26035
X105410Y26035
X107950Y26035
X97790Y26035
X95250Y26035
X95250Y18415
X97790Y18415
X100330Y18415
X102870Y18415
X105410Y18415
X107950Y18415
X110490Y18415
X113030Y18415
X115570Y18415
X118110Y18415
X26352Y31115
X11112Y61595
X41593Y31115
X44132Y31115
X31432Y31115
X33973Y31115
X39053Y31115
X36513Y31115
X46672Y31115
X46672Y38735
X44132Y38735
X41593Y38735
X39053Y38735
X36513Y38735
X33973Y38735
X31432Y38735
X28892Y38735
X26352Y38735
X26352Y15875
X28892Y15875
X41593Y15875
X44132Y15875
X31432Y15875
X33973Y15875
X39053Y15875
X36513Y15875
X46672Y15875
X46672Y23495
X44132Y23495
X41593Y23495
X39053Y23495
X36513Y23495
X33973Y23495
X31432Y23495
X28892Y23495
X26352Y23495
X87313Y33655
X84773Y33655
X72073Y33655
X69533Y33655
X82233Y33655
X79693Y33655
X74613Y33655
X77153Y33655
X66993Y33655
X64452Y33655
X61912Y33655
X59372Y33655
X56832Y33655
X54292Y33655
X54292Y18415
X56832Y18415
X59372Y18415
X61912Y18415
X64452Y18415
X66993Y18415
X69533Y18415
X72073Y18415
X74613Y18415
X77153Y18415
X79693Y18415
X82233Y18415
X84773Y18415
X87313Y18415
X87313Y53975
X84773Y53975
X72073Y53975
X69533Y53975
X82233Y53975
X79693Y53975
X74613Y53975
X77153Y53975
X66993Y53975
X64452Y53975
X61912Y53975
X59372Y53975
X56832Y53975
X54292Y53975
X54292Y38735
X56832Y38735
X59372Y38735
X61912Y38735
X64452Y38735
X66993Y38735
X69533Y38735
X72073Y38735
X74613Y38735
X77153Y38735
X79693Y38735
X82233Y38735
X84773Y38735
X87313Y38735
X18733Y23495
X16192Y23495
X3492Y23495
X3492Y15875
X13652Y23495
X11112Y23495
X6032Y23495
X8573Y23495
X6032Y15875
X8573Y15875
X11112Y15875
X13652Y15875
X16192Y15875
X18733Y15875
X18733Y36195
X16192Y36195
X3492Y36195
X3492Y28575
X13652Y36195
X11112Y36195
X6032Y36195
X8573Y36195
X6032Y28575
X8573Y28575
X11112Y28575
X13652Y28575
X16192Y28575
X18733Y28575
X18733Y61595
T3
X102870Y61595
X91440Y18415
X74613Y73025
X86360Y47625
X48260Y44132
X49212Y23812
X91122Y38735
X72073Y66675
X93662Y17145
X73343Y31750
X54610Y31115
X14922Y32385
X1905Y23495
X42863Y71120
X54292Y48260
X111442Y14287
T4
X62547Y41275
X28575Y48577
X60007Y41593
X32067Y50165
X57785Y42228
X29210Y50800
X90170Y46355
X55245Y42545
X28892Y36195
X28257Y33655
X92710Y33655
X33020Y34608
X57150Y36830
X84773Y41593
X104140Y36195
X29210Y29210
X58737Y36195
X26352Y33655
X26352Y48260
X111760Y34925
X31750Y29210
X60642Y35560
X101282Y35878
X97155Y10160
X89535Y51117
X72073Y71755
X12382Y55880
X75485Y10240
X4763Y26035
X91440Y28575
X82550Y15875
X80963Y27305
X17145Y30480
X78105Y10160
X62230Y29686
X85408Y10160
X80963Y79375
X12382Y76835
X80010Y28575
X51752Y12700
X54610Y22860
X54610Y20955
X100330Y13335
X66040Y26987
X70168Y26987
X61912Y73025
X64770Y56515
X40005Y43498
X76200Y45085
X31432Y75565
X74295Y69533
X68263Y60007
X68263Y51435
X39053Y73978
X80963Y64770
X80963Y69533
X33973Y73025
X79375Y64770
X77470Y68580
X69850Y64135
X100012Y66358
X76200Y65405
X37783Y65087
X97472Y67945
X28892Y65405
X86360Y67945
X16192Y71755
X16192Y56515
X27622Y76767
X17463Y52070
X35878Y42228
X17463Y39688
X14922Y76835
X21273Y71755
X26352Y10795
X51752Y71755
X69850Y71755
X54610Y71755
X57150Y71755
X95091Y69374
X51117Y46990
X53022Y40640
X55562Y40640
X11430Y44132
X42863Y51117
X39370Y51117
X36513Y58737
X45720Y66675
X45085Y58102
X33973Y44450
X14922Y17463
X110172Y10160
X13652Y34290
X9843Y46672
X9843Y71755
X96202Y79375
X18733Y69533
X11747Y69215
X6032Y46990
X6032Y43180
X30162Y43180
X8573Y43815
X35243Y66743
X8573Y69850
X46037Y68580
X107950Y28575
X7302Y38100
X13494Y44926
X100330Y52387
X50482Y42228
X49847Y18415
M30