G04 EAGLE Gerber RS-274X export*
G75*
%MOMM*%
%FSLAX34Y34*%
%LPD*%
%INSoldermask Top*%
%IPPOS*%
%AMOC8*
5,1,8,0,0,1.08239X$1,22.5*%
G01*
%ADD10R,1.727200X6.680200*%
%ADD11C,1.524000*%
%ADD12R,1.503200X1.703200*%
%ADD13C,1.727200*%
%ADD14C,1.511200*%


D10*
X520700Y44577D03*
X546100Y44577D03*
X571500Y44577D03*
X596900Y44577D03*
X622300Y44577D03*
X647700Y44577D03*
X673100Y44577D03*
X698500Y44577D03*
X723900Y44577D03*
X749300Y44577D03*
X774700Y44577D03*
X800100Y44577D03*
X825500Y44577D03*
X850900Y44577D03*
X876300Y44577D03*
X901700Y44577D03*
X927100Y44577D03*
X952500Y44577D03*
X977900Y44577D03*
X1003300Y44577D03*
X1028700Y44577D03*
X1054100Y44577D03*
X1079500Y44577D03*
X1104900Y44577D03*
X1130300Y44577D03*
D11*
X228600Y565150D03*
X228600Y615950D03*
X1219200Y336550D03*
X1219200Y387350D03*
X1219200Y184150D03*
X1219200Y234950D03*
X228600Y158750D03*
X228600Y209550D03*
X479425Y615950D03*
X479425Y666750D03*
X482600Y463550D03*
X482600Y514350D03*
X504825Y336550D03*
X504825Y387350D03*
X508000Y158750D03*
X508000Y209550D03*
X914400Y536575D03*
X914400Y485775D03*
X914400Y260350D03*
X914400Y311150D03*
X1038225Y717550D03*
X1038225Y768350D03*
X1000125Y768350D03*
X974725Y768350D03*
X847725Y768350D03*
X822325Y768350D03*
X949325Y768350D03*
X923925Y768350D03*
X873125Y768350D03*
X898525Y768350D03*
X796925Y768350D03*
X771525Y768350D03*
X746125Y768350D03*
X720725Y768350D03*
X695325Y768350D03*
X669925Y768350D03*
X644525Y768350D03*
X619125Y768350D03*
X593725Y768350D03*
X568325Y768350D03*
X542925Y768350D03*
X517525Y768350D03*
X517525Y615950D03*
X542925Y615950D03*
X568325Y615950D03*
X593725Y615950D03*
X619125Y615950D03*
X644525Y615950D03*
X669925Y615950D03*
X695325Y615950D03*
X720725Y615950D03*
X746125Y615950D03*
X771525Y615950D03*
X796925Y615950D03*
X822325Y615950D03*
X847725Y615950D03*
X873125Y615950D03*
X898525Y615950D03*
X923925Y615950D03*
X949325Y615950D03*
X974725Y615950D03*
X1000125Y615950D03*
X441325Y692150D03*
X415925Y692150D03*
X288925Y692150D03*
X263525Y692150D03*
X390525Y692150D03*
X365125Y692150D03*
X314325Y692150D03*
X339725Y692150D03*
X263525Y615950D03*
X288925Y615950D03*
X314325Y615950D03*
X339725Y615950D03*
X365125Y615950D03*
X390525Y615950D03*
X415925Y615950D03*
X441325Y615950D03*
X1181100Y387350D03*
X1155700Y387350D03*
X1028700Y387350D03*
X1003300Y387350D03*
X1130300Y387350D03*
X1104900Y387350D03*
X1054100Y387350D03*
X1079500Y387350D03*
X977900Y387350D03*
X952500Y387350D03*
X952500Y311150D03*
X977900Y311150D03*
X1003300Y311150D03*
X1028700Y311150D03*
X1054100Y311150D03*
X1079500Y311150D03*
X1104900Y311150D03*
X1130300Y311150D03*
X1155700Y311150D03*
X1181100Y311150D03*
X1181100Y260350D03*
X1155700Y260350D03*
X1028700Y260350D03*
X1003300Y260350D03*
X1130300Y260350D03*
X1104900Y260350D03*
X1054100Y260350D03*
X1079500Y260350D03*
X977900Y260350D03*
X952500Y260350D03*
X952500Y184150D03*
X977900Y184150D03*
X1003300Y184150D03*
X1028700Y184150D03*
X1054100Y184150D03*
X1079500Y184150D03*
X1104900Y184150D03*
X1130300Y184150D03*
X1155700Y184150D03*
X1181100Y184150D03*
X263525Y311150D03*
X288925Y311150D03*
X415925Y311150D03*
X441325Y311150D03*
X314325Y311150D03*
X339725Y311150D03*
X390525Y311150D03*
X365125Y311150D03*
X466725Y311150D03*
X466725Y387350D03*
X441325Y387350D03*
X415925Y387350D03*
X390525Y387350D03*
X365125Y387350D03*
X339725Y387350D03*
X314325Y387350D03*
X288925Y387350D03*
X263525Y387350D03*
X263525Y158750D03*
X288925Y158750D03*
X415925Y158750D03*
X441325Y158750D03*
X314325Y158750D03*
X339725Y158750D03*
X390525Y158750D03*
X365125Y158750D03*
X466725Y158750D03*
X466725Y234950D03*
X441325Y234950D03*
X415925Y234950D03*
X390525Y234950D03*
X365125Y234950D03*
X339725Y234950D03*
X314325Y234950D03*
X288925Y234950D03*
X263525Y234950D03*
X873125Y336550D03*
X847725Y336550D03*
X720725Y336550D03*
X695325Y336550D03*
X822325Y336550D03*
X796925Y336550D03*
X746125Y336550D03*
X771525Y336550D03*
X669925Y336550D03*
X644525Y336550D03*
X619125Y336550D03*
X593725Y336550D03*
X568325Y336550D03*
X542925Y336550D03*
X542925Y184150D03*
X568325Y184150D03*
X593725Y184150D03*
X619125Y184150D03*
X644525Y184150D03*
X669925Y184150D03*
X695325Y184150D03*
X720725Y184150D03*
X746125Y184150D03*
X771525Y184150D03*
X796925Y184150D03*
X822325Y184150D03*
X847725Y184150D03*
X873125Y184150D03*
X873125Y539750D03*
X847725Y539750D03*
X720725Y539750D03*
X695325Y539750D03*
X822325Y539750D03*
X796925Y539750D03*
X746125Y539750D03*
X771525Y539750D03*
X669925Y539750D03*
X644525Y539750D03*
X619125Y539750D03*
X593725Y539750D03*
X568325Y539750D03*
X542925Y539750D03*
X542925Y387350D03*
X568325Y387350D03*
X593725Y387350D03*
X619125Y387350D03*
X644525Y387350D03*
X669925Y387350D03*
X695325Y387350D03*
X720725Y387350D03*
X746125Y387350D03*
X771525Y387350D03*
X796925Y387350D03*
X822325Y387350D03*
X847725Y387350D03*
X873125Y387350D03*
X187325Y234950D03*
X161925Y234950D03*
X34925Y234950D03*
X34925Y158750D03*
X136525Y234950D03*
X111125Y234950D03*
X60325Y234950D03*
X85725Y234950D03*
X60325Y158750D03*
X85725Y158750D03*
X111125Y158750D03*
X136525Y158750D03*
X161925Y158750D03*
X187325Y158750D03*
X187325Y361950D03*
X161925Y361950D03*
X34925Y361950D03*
X34925Y285750D03*
X136525Y361950D03*
X111125Y361950D03*
X60325Y361950D03*
X85725Y361950D03*
X60325Y285750D03*
X85725Y285750D03*
X111125Y285750D03*
X136525Y285750D03*
X161925Y285750D03*
X187325Y285750D03*
X187325Y615950D03*
X161925Y615950D03*
X34925Y615950D03*
X34925Y539750D03*
X136525Y615950D03*
X111125Y615950D03*
X60325Y615950D03*
X85725Y615950D03*
X60325Y539750D03*
X85725Y539750D03*
X111125Y539750D03*
X136525Y539750D03*
X161925Y539750D03*
X187325Y539750D03*
X187325Y488950D03*
X161925Y488950D03*
X34925Y488950D03*
X34925Y412750D03*
X136525Y488950D03*
X111125Y488950D03*
X60325Y488950D03*
X85725Y488950D03*
X60325Y412750D03*
X85725Y412750D03*
X111125Y412750D03*
X136525Y412750D03*
X161925Y412750D03*
X187325Y412750D03*
X212725Y742950D03*
X187325Y742950D03*
X60325Y742950D03*
X34925Y742950D03*
X161925Y742950D03*
X136525Y742950D03*
X85725Y742950D03*
X111125Y742950D03*
X34925Y666750D03*
X60325Y666750D03*
X85725Y666750D03*
X111125Y666750D03*
X136525Y666750D03*
X161925Y666750D03*
X187325Y666750D03*
X212725Y666750D03*
X441325Y539750D03*
X415925Y539750D03*
X288925Y539750D03*
X263525Y539750D03*
X390525Y539750D03*
X365125Y539750D03*
X314325Y539750D03*
X339725Y539750D03*
X263525Y463550D03*
X288925Y463550D03*
X314325Y463550D03*
X339725Y463550D03*
X365125Y463550D03*
X390525Y463550D03*
X415925Y463550D03*
X441325Y463550D03*
D12*
X1062500Y142875D03*
X1079500Y142875D03*
X1096500Y142875D03*
D13*
X1130300Y768350D03*
X1130300Y742950D03*
X1130300Y717550D03*
X1130300Y692150D03*
X1130300Y666750D03*
X1130300Y641350D03*
X1155700Y768350D03*
X1155700Y742950D03*
X1155700Y717550D03*
X1155700Y692150D03*
X1155700Y666750D03*
X1155700Y641350D03*
X1130300Y615950D03*
X1130300Y590550D03*
X1155700Y615950D03*
X1155700Y590550D03*
X1130300Y565150D03*
X1155700Y565150D03*
X1130300Y539750D03*
X1155700Y539750D03*
D11*
X250825Y730250D03*
X301625Y730250D03*
X1003300Y438150D03*
X1003300Y463550D03*
X1028700Y438150D03*
X1028700Y463550D03*
X1054100Y438150D03*
X1054100Y463550D03*
X1079500Y438150D03*
X1079500Y463550D03*
X1104900Y438150D03*
X1104900Y463550D03*
X1130300Y438150D03*
X1130300Y463550D03*
X1155700Y438150D03*
X1155700Y463550D03*
X1181100Y438150D03*
X1181100Y463550D03*
X228600Y492125D03*
X228600Y542925D03*
X225425Y336550D03*
X225425Y387350D03*
X225425Y311150D03*
X225425Y260350D03*
X1079500Y704850D03*
X1079500Y755650D03*
X1028700Y539750D03*
X1028700Y590550D03*
X844550Y119063D03*
X971550Y119063D03*
X952500Y438150D03*
X952500Y463550D03*
X977900Y438150D03*
X977900Y463550D03*
X1206500Y438150D03*
X1181100Y438150D03*
X1155700Y438150D03*
X1130300Y438150D03*
X1104900Y438150D03*
X1079500Y438150D03*
X1054100Y438150D03*
X1028700Y438150D03*
X1003300Y438150D03*
X977900Y438150D03*
X952500Y438150D03*
X225425Y406400D03*
X225425Y457200D03*
X250825Y431800D03*
D14*
X1028700Y615950D03*
X914400Y184150D03*
X746125Y730250D03*
X863600Y476250D03*
X482600Y441325D03*
X492125Y238125D03*
X911225Y387350D03*
X720725Y666750D03*
X936625Y171450D03*
X733425Y317500D03*
X546100Y311150D03*
X149225Y323850D03*
X19050Y234950D03*
X428625Y711200D03*
X542925Y482600D03*
X1114425Y142875D03*
M02*
